HIERARCHY
ROOT Hips
{
	OFFSET 0.000000 100.481300 0.000000
	CHANNELS 6 Xposition Yposition Zposition Xrotation Yrotation Zrotation
	JOINT Spine
	{
		OFFSET -0.279200 12.230698 -2.892100
		CHANNELS 3 Xrotation Yrotation Zrotation
		JOINT Spine1
		{
			OFFSET -0.325700 14.269203 -3.374200
			CHANNELS 3 Xrotation Yrotation Zrotation
			JOINT Spine2
			{
				OFFSET -0.372300 16.307602 -0.352600
				CHANNELS 3 Xrotation Yrotation Zrotation
				JOINT Neck
				{
					OFFSET -0.418800 17.814194 8.416900
					CHANNELS 3 Xrotation Yrotation Zrotation
					JOINT Head
					{
						OFFSET 0.000000 7.031097 3.806800
						CHANNELS 3 Xrotation Yrotation Zrotation
						JOINT HeadTop_End
						{
							OFFSET 0.000000 24.646606 12.978600
							CHANNELS 3 Xrotation Yrotation Zrotation
							End Site
							{
								OFFSET 0.000000 27.854965 0.000000
							}
						}
					}
				}
				JOINT LeftShoulder
				{
					OFFSET 16.952999 14.495407 -7.737500
					CHANNELS 3 Xrotation Yrotation Zrotation
					JOINT LeftArm
					{
						OFFSET 9.308998 -2.777710 0.208600
						CHANNELS 3 Xrotation Yrotation Zrotation
						JOINT LeftForeArm
						{
							OFFSET 29.972298 0.000000 0.000000
							CHANNELS 3 Xrotation Yrotation Zrotation
							JOINT LeftHand
							{
								OFFSET 26.026505 0.000000 0.000000
								CHANNELS 3 Xrotation Yrotation Zrotation
								JOINT LeftHandThumb1
								{
									OFFSET 12.240501 -7.147949 9.207150
									CHANNELS 3 Xrotation Yrotation Zrotation
									JOINT LeftHandThumb2
									{
										OFFSET 4.138618 -2.389435 2.389433
										CHANNELS 3 Xrotation Yrotation Zrotation
										JOINT LeftHandThumb3
										{
											OFFSET 2.726913 -1.574387 1.574386
											CHANNELS 3 Xrotation Yrotation Zrotation
											JOINT LeftHandThumb4
											{
												OFFSET 3.941010 -2.275345 2.275342
												CHANNELS 3 Xrotation Yrotation Zrotation
												End Site
												{
													OFFSET -0.005798 5.087799 0.009903
												}
											}
										}
									}
								}
								JOINT LeftHandIndex1
								{
									OFFSET 24.424698 -1.985611 5.953459
									CHANNELS 3 Xrotation Yrotation Zrotation
									JOINT LeftHandIndex2
									{
										OFFSET 6.426697 0.000000 0.000000
										CHANNELS 3 Xrotation Yrotation Zrotation
										JOINT LeftHandIndex3
										{
											OFFSET 5.337898 0.000000 0.000000
											CHANNELS 3 Xrotation Yrotation Zrotation
											JOINT LeftHandIndex4
											{
												OFFSET 4.409401 0.000000 0.000000
												CHANNELS 3 Xrotation Yrotation Zrotation
												End Site
												{
													OFFSET 0.000000 4.409363 0.014373
												}
											}
										}
									}
								}
								JOINT LeftHandMiddle1
								{
									OFFSET 23.810104 0.000000 0.000000
									CHANNELS 3 Xrotation Yrotation Zrotation
									JOINT LeftHandMiddle2
									{
										OFFSET 7.176498 0.000000 0.000000
										CHANNELS 3 Xrotation Yrotation Zrotation
										JOINT LeftHandMiddle3
										{
											OFFSET 6.774902 0.000000 0.000000
											CHANNELS 3 Xrotation Yrotation Zrotation
											JOINT LeftHandMiddle4
											{
												OFFSET 5.403328 0.000000 0.000000
												CHANNELS 3 Xrotation Yrotation Zrotation
												End Site
												{
													OFFSET -0.027702 5.403244 0.017414
												}
											}
										}
									}
								}
								JOINT LeftHandRing1
								{
									OFFSET 22.908401 -0.839279 -6.020567
									CHANNELS 3 Xrotation Yrotation Zrotation
									JOINT LeftHandRing2
									{
										OFFSET 6.337502 0.000000 0.000000
										CHANNELS 3 Xrotation Yrotation Zrotation
										JOINT LeftHandRing3
										{
											OFFSET 5.779297 0.000000 0.000000
											CHANNELS 3 Xrotation Yrotation Zrotation
											JOINT LeftHandRing4
											{
												OFFSET 4.965698 0.000000 0.000000
												CHANNELS 3 Xrotation Yrotation Zrotation
												End Site
												{
													OFFSET 0.000000 4.965668 0.016186
												}
											}
										}
									}
								}
								JOINT LeftHandPinky1
								{
									OFFSET 20.037003 -1.530319 -10.950146
									CHANNELS 3 Xrotation Yrotation Zrotation
									JOINT LeftHandPinky2
									{
										OFFSET 5.254700 0.000000 0.000000
										CHANNELS 3 Xrotation Yrotation Zrotation
										JOINT LeftHandPinky3
										{
											OFFSET 4.810204 0.000000 0.000000
											CHANNELS 3 Xrotation Yrotation Zrotation
											JOINT LeftHandPinky4
											{
												OFFSET 3.647202 0.000000 0.000000
												CHANNELS 3 Xrotation Yrotation Zrotation
												End Site
												{
													OFFSET 0.000000 3.647186 0.011889
												}
											}
										}
									}
								}
							}
						}
					}
				}
				JOINT RightShoulder
				{
					OFFSET -15.141001 14.495407 -7.737500
					CHANNELS 3 Xrotation Yrotation Zrotation
					JOINT RightArm
					{
						OFFSET -9.308998 -2.777710 0.208500
						CHANNELS 3 Xrotation Yrotation Zrotation
						JOINT RightForeArm
						{
							OFFSET -29.972300 0.000000 0.000000
							CHANNELS 3 Xrotation Yrotation Zrotation
							JOINT RightHand
							{
								OFFSET -26.026505 0.000000 0.000000
								CHANNELS 3 Xrotation Yrotation Zrotation
								JOINT RightHandThumb1
								{
									OFFSET -12.240601 -7.148026 9.207092
									CHANNELS 3 Xrotation Yrotation Zrotation
									JOINT RightHandThumb2
									{
										OFFSET -4.138618 -2.389435 2.389433
										CHANNELS 3 Xrotation Yrotation Zrotation
										JOINT RightHandThumb3
										{
											OFFSET -2.726974 -1.574417 1.574421
											CHANNELS 3 Xrotation Yrotation Zrotation
											JOINT RightHandThumb4
											{
												OFFSET -3.941010 -2.275345 2.275343
												CHANNELS 3 Xrotation Yrotation Zrotation
												End Site
												{
													OFFSET 0.005814 5.087799 0.009927
												}
											}
										}
									}
								}
								JOINT RightHandIndex1
								{
									OFFSET -24.424698 -1.985657 5.953444
									CHANNELS 3 Xrotation Yrotation Zrotation
									JOINT RightHandIndex2
									{
										OFFSET -6.426697 0.000000 0.000000
										CHANNELS 3 Xrotation Yrotation Zrotation
										JOINT RightHandIndex3
										{
											OFFSET -5.337898 0.000000 0.000000
											CHANNELS 3 Xrotation Yrotation Zrotation
											JOINT RightHandIndex4
											{
												OFFSET -4.409401 0.000000 0.000000
												CHANNELS 3 Xrotation Yrotation Zrotation
												End Site
												{
													OFFSET 0.000000 4.409363 0.014408
												}
											}
										}
									}
								}
								JOINT RightHandMiddle1
								{
									OFFSET -23.810097 0.000000 0.000000
									CHANNELS 3 Xrotation Yrotation Zrotation
									JOINT RightHandMiddle2
									{
										OFFSET -7.176498 0.000000 0.000000
										CHANNELS 3 Xrotation Yrotation Zrotation
										JOINT RightHandMiddle3
										{
											OFFSET -6.774902 0.000000 0.000000
											CHANNELS 3 Xrotation Yrotation Zrotation
											JOINT RightHandMiddle4
											{
												OFFSET -5.403328 0.000000 0.000000
												CHANNELS 3 Xrotation Yrotation Zrotation
												End Site
												{
													OFFSET 0.027702 5.403244 0.017457
												}
											}
										}
									}
								}
								JOINT RightHandRing1
								{
									OFFSET -22.908302 -0.839325 -6.020576
									CHANNELS 3 Xrotation Yrotation Zrotation
									JOINT RightHandRing2
									{
										OFFSET -6.337502 0.000000 0.000000
										CHANNELS 3 Xrotation Yrotation Zrotation
										JOINT RightHandRing3
										{
											OFFSET -5.779297 0.000000 0.000000
											CHANNELS 3 Xrotation Yrotation Zrotation
											JOINT RightHandRing4
											{
												OFFSET -4.965698 0.000000 0.000000
												CHANNELS 3 Xrotation Yrotation Zrotation
												End Site
												{
													OFFSET 0.000000 4.965668 0.016226
												}
											}
										}
									}
								}
								JOINT RightHandPinky1
								{
									OFFSET -20.037003 -1.530334 -10.950259
									CHANNELS 3 Xrotation Yrotation Zrotation
									JOINT RightHandPinky2
									{
										OFFSET -5.254700 0.000000 0.000000
										CHANNELS 3 Xrotation Yrotation Zrotation
										JOINT RightHandPinky3
										{
											OFFSET -4.810204 0.000000 0.000000
											CHANNELS 3 Xrotation Yrotation Zrotation
											JOINT RightHandPinky4
											{
												OFFSET -3.647202 0.000000 0.000000
												CHANNELS 3 Xrotation Yrotation Zrotation
												End Site
												{
													OFFSET 0.000000 3.647186 0.011917
												}
											}
										}
									}
								}
							}
						}
					}
				}
			}
		}
	}
	JOINT LeftUpLeg
	{
		OFFSET 15.427100 -6.655098 0.678600
		CHANNELS 3 Xrotation Yrotation Zrotation
		JOINT LeftLeg
		{
			OFFSET 4.081073 -39.591068 13.024000
			CHANNELS 3 Xrotation Yrotation Zrotation
			JOINT LeftFoot
			{
				OFFSET -4.081074 -37.707932 -15.979700
				CHANNELS 3 Xrotation Yrotation Zrotation
				JOINT LeftToeBase
				{
					OFFSET 5.346399 -15.068900 20.645000
					CHANNELS 3 Xrotation Yrotation Zrotation
					JOINT LeftToe_End
					{
						OFFSET 2.754700 0.931300 11.300900
						CHANNELS 3 Xrotation Yrotation Zrotation
						End Site
						{
							OFFSET 0.000000 11.669021 0.000000
						}
					}
				}
			}
		}
	}
	JOINT RightUpLeg
	{
		OFFSET -15.569500 -6.655098 0.678600
		CHANNELS 3 Xrotation Yrotation Zrotation
		JOINT RightLeg
		{
			OFFSET -4.081825 -39.591045 13.023800
			CHANNELS 3 Xrotation Yrotation Zrotation
			JOINT RightFoot
			{
				OFFSET 4.081824 -37.707954 -15.979600
				CHANNELS 3 Xrotation Yrotation Zrotation
				JOINT RightToeBase
				{
					OFFSET -5.346400 -15.068900 20.645000
					CHANNELS 3 Xrotation Yrotation Zrotation
					JOINT RightToe_End
					{
						OFFSET -2.754700 0.931300 11.300900
						CHANNELS 3 Xrotation Yrotation Zrotation
						End Site
						{
							OFFSET 0.000000 11.669021 0.000000
						}
					}
				}
			}
		}
	}
}
MOTION
Frames: 4
Frame Time: 0.033333
0.564835 49.294960 16.302050 0.145629 0.084809 0.843807 10.430289 0.113207 -1.467411 -0.199265 0.213327 -0.355474 -0.199583 0.248527 -0.300891 -1.001768 -1.284342 0.469464 -8.883495 -4.327063 -5.321562 -0.000000 -0.000001 0.000000 0.823521 -15.262025 -7.868749 4.746734 -21.216403 -54.862204 0.000010 -62.197513 0.000004 31.062980 4.315240 41.770206 6.610622 1.798239 20.801500 2.716375 20.172569 -24.389161 -5.537247 29.849535 5.070895 0.000000 -0.000002 -0.000001 -0.235305 2.798401 -26.913102 0.396833 2.121287 -21.189287 0.083134 0.984446 -9.653137 0.000000 -0.000001 0.000000 1.297909 7.330119 -16.511480 0.329949 1.940061 -19.302103 0.233133 1.637756 -16.201260 0.000000 -0.000002 0.000003 1.797306 9.807901 -14.184349 0.205917 1.541094 -15.220327 0.265325 1.744696 -17.292067 0.000001 0.000001 -0.000003 2.041309 10.867560 -13.918936 0.168521 1.396427 -13.761340 0.107168 1.116583 -10.964165 -0.000003 -0.000000 -0.000002 3.171093 -4.378722 8.782888 -3.950264 37.253409 63.733643 -0.000024 55.137914 0.000029 43.537313 4.741047 -36.277973 -9.378514 -1.614140 -17.604710 3.565088 -24.319928 34.634598 -6.613459 -37.492739 -11.194104 -0.000000 -0.000002 0.000001 2.957828 1.012843 13.529997 0.472470 -2.045711 26.006736 0.059741 -0.744401 9.177803 0.000001 0.000001 -0.000001 0.105805 -3.670967 2.524976 0.584982 -2.261659 29.000201 0.020468 -0.436581 5.367135 -0.000001 -0.000002 0.000001 0.456375 -7.644965 4.304669 0.107484 -0.995837 12.320161 0.072398 -0.818808 10.104473 0.000003 -0.000001 -0.000001 -11.153707 -10.226796 7.170429 0.029111 -0.520498 6.403088 0.028642 -0.516314 6.351261 -0.000001 -0.000001 -0.000002 -86.311885 -11.435635 18.502588 79.642656 -0.702797 -3.138022 9.217047 -6.278359 -9.767182 -0.094353 0.000003 -0.000000 -0.000000 -0.000000 0.000000 -88.057859 12.724640 -14.134497 80.264633 0.662662 1.241149 10.523349 -0.516448 10.739080 -0.188122 -0.000001 0.000003 0.000000 0.000000 0.000000 
0.614814 49.275688 16.322018 0.420109 0.034643 0.781100 10.497739 0.262894 -1.233690 -0.093760 0.225836 -0.341154 -0.100739 0.301171 -0.310080 -0.826278 -1.314705 0.456599 -9.450806 -4.384164 -5.430814 -0.000000 0.000000 -0.000000 0.972852 -15.268710 -7.427451 4.481282 -21.576300 -55.123947 -0.000051 -62.349273 -0.000045 30.947420 4.216981 42.202919 6.610615 1.798262 20.801503 2.716401 20.172574 -24.389166 -5.537245 29.849525 5.070901 0.000001 -0.000002 -0.000001 -0.235304 2.798410 -26.913102 0.396830 2.121282 -21.189289 0.083134 0.984445 -9.653139 -0.000002 0.000000 -0.000002 1.297894 7.330115 -16.511491 0.329961 1.940072 -19.302094 0.233119 1.637774 -16.201272 -0.000002 -0.000002 0.000004 1.797306 9.807915 -14.184352 0.197176 1.508603 -14.891699 0.258902 1.723958 -17.079988 0.000002 0.000000 -0.000002 2.041309 10.867564 -13.918937 0.168525 1.396434 -13.761340 0.107160 1.116559 -10.964173 -0.000001 -0.000000 -0.000002 3.195276 -4.722245 8.613865 -3.841734 37.499975 63.658961 -0.000032 55.823129 0.000025 43.758283 4.366621 -36.361960 -9.393664 -1.698847 -17.666988 3.565126 -24.319971 34.634564 -6.610746 -37.503042 -11.194776 -0.000003 -0.000001 0.000002 2.935172 1.031070 13.397057 0.471533 -2.043798 25.980571 0.059418 -0.742296 9.151665 0.000001 0.000001 -0.000000 0.099823 -3.650991 2.276737 0.580890 -2.254277 28.896256 0.019672 -0.428007 5.261815 -0.000001 -0.000000 0.000000 0.443107 -7.700763 4.103158 0.105551 -0.986938 12.208397 0.070963 -0.810704 10.003412 -0.000000 -0.000000 0.000001 -11.157654 -10.268303 7.075757 0.028834 -0.518029 6.372460 0.028336 -0.513466 6.316056 -0.000000 0.000000 -0.000003 -86.641885 -11.520954 18.489612 79.710090 -0.704163 -3.141371 9.217632 -6.220102 -9.759635 -0.100891 0.000002 -0.000001 -0.000000 -0.000001 0.000000 -88.333272 12.744719 -14.080926 80.221214 0.653009 1.242998 10.576814 -0.511122 10.820138 -0.186878 -0.000008 -0.000004 -0.000000 -0.000001 -0.000000 
0.687481 49.234367 16.344301 0.973973 -0.055721 0.638060 10.639562 0.481163 -0.881385 0.196905 0.256595 -0.306874 0.186524 0.366886 -0.286942 -0.616516 -1.352843 0.469974 -10.812577 -4.478593 -5.501825 0.000000 0.000000 0.000000 1.042813 -15.232514 -7.006923 4.286209 -21.871622 -55.240821 0.000020 -63.204733 0.000023 30.992209 4.267793 42.847938 6.610622 1.798243 20.801495 2.716381 20.172557 -24.389163 -5.537238 29.849545 5.070898 0.000001 -0.000003 0.000000 -0.235306 2.798403 -26.913140 0.396820 2.121273 -21.189332 0.083124 0.984461 -9.653185 -0.000002 0.000001 0.000001 1.297887 7.330094 -16.511530 0.329947 1.940081 -19.302154 0.233136 1.637777 -16.201262 0.000000 0.000000 0.000004 1.797304 9.807901 -14.184388 0.180392 1.444030 -14.240263 0.246100 1.681763 -16.649291 0.000001 0.000003 -0.000001 2.041308 10.867568 -13.918985 0.168516 1.396431 -13.761387 0.107173 1.116581 -10.964212 -0.000001 0.000000 -0.000001 3.224162 -5.298159 8.330771 -3.698036 37.808731 63.472504 -0.000038 57.320443 0.000044 44.283897 3.716852 -36.546730 -9.407988 -1.777790 -17.725135 3.565082 -24.319908 34.634602 -6.608817 -37.512372 -11.196177 -0.000001 -0.000008 0.000001 2.913791 1.047567 13.272712 0.470649 -2.041994 25.955957 0.059092 -0.740316 9.126912 0.000000 0.000002 0.000002 0.094322 -3.632365 2.045076 0.577060 -2.247316 28.798810 0.018949 -0.420065 5.163618 -0.000000 -0.000001 -0.000002 0.430201 -7.752645 3.913698 0.103780 -0.978735 12.105464 0.069636 -0.803147 9.909218 -0.000001 0.000001 -0.000001 -11.161754 -10.306800 6.986385 0.028578 -0.515629 6.342866 0.028035 -0.510795 6.283203 0.000003 -0.000000 -0.000002 -87.319447 -11.713413 18.484631 79.806977 -0.726594 -3.144496 9.266987 -6.115721 -9.766604 -0.100924 -0.000001 -0.000000 0.000000 -0.000000 0.000000 -88.895923 12.762175 -13.947710 80.130823 0.602474 1.249738 10.693816 -0.500813 10.964953 -0.185733 -0.000000 -0.000001 0.000000 0.000000 -0.000000 
0.775134 49.179626 16.363878 1.703135 -0.173044 0.443841 10.826323 0.744973 -0.450427 0.605906 0.301134 -0.257716 0.594217 0.441473 -0.243479 -0.378506 -1.394683 0.494829 -12.677336 -4.595901 -5.554786 -0.000000 -0.000000 -0.000000 1.062942 -15.174249 -6.595169 4.138845 -22.123445 -55.268856 -0.000057 -64.490660 -0.000055 31.139440 4.401020 43.647248 6.610660 1.798250 20.801491 2.716373 20.172580 -24.389152 -5.537232 29.849491 5.070867 0.000001 0.000000 0.000000 -0.235306 2.798425 -26.913128 0.396836 2.121284 -21.189321 0.083127 0.984443 -9.653154 -0.000001 0.000002 -0.000002 1.297898 7.330115 -16.511502 0.329944 1.940067 -19.302140 0.233123 1.637777 -16.201250 0.000003 0.000000 0.000000 1.797304 9.807903 -14.184364 0.159450 1.358886 -13.384326 0.229676 1.625861 -16.080133 -0.000000 0.000000 -0.000001 2.041323 10.867566 -13.918945 0.168513 1.396435 -13.761343 0.107165 1.116572 -10.964201 0.000001 0.000000 -0.000003 3.249783 -6.019233 7.976757 -3.527583 38.157412 63.206974 -0.000007 59.336702 -0.000013 44.995295 2.884342 -36.794103 -9.421926 -1.853124 -17.780669 3.565059 -24.319835 34.634639 -6.607826 -37.520913 -11.198664 -0.000000 -0.000002 -0.000001 2.893205 1.063096 13.154274 0.469822 -2.040263 25.932485 0.058785 -0.738414 9.103483 0.000001 0.000001 0.000002 0.089146 -3.614564 1.824373 0.573421 -2.240695 28.705588 0.018262 -0.412437 5.069822 -0.000000 0.000000 0.000000 0.417459 -7.802139 3.732130 0.102134 -0.971030 12.008684 0.068373 -0.795934 9.819203 -0.000000 -0.000001 0.000001 -11.165717 -10.343463 6.900918 0.028325 -0.513351 6.314767 0.027750 -0.508230 6.251588 -0.000001 0.000000 -0.000001 -88.220001 -11.970584 18.481080 79.917127 -0.761478 -3.146024 9.355237 -5.983259 -9.776345 -0.098859 -0.000002 -0.000002 0.000000 -0.000001 -0.000000 -89.636725 12.776830 -13.764435 80.004690 0.524067 1.258782 10.855222 -0.487419 11.152381 -0.184952 0.000000 -0.000002 0.000000 -0.000000 -0.000000 
